<?xml version="1.0" encoding="UTF-8"?>
<svg xmlns="http://www.w3.org/2000/svg" xmlns:xlink="http://www.w3.org/1999/xlink" width="64" height="64" viewBox="0 0 64 64">
<defs>
<clipPath id="clip-0">
<path clip-rule="nonzero" d="M 24 40 L 40 40 L 40 43 L 24 43 Z M 24 40 "/>
</clipPath>
<clipPath id="clip-1">
<path clip-rule="nonzero" d="M 24 40 L 40 40 L 32 62 Z M 24 40 "/>
</clipPath>
<clipPath id="clip-2">
<path clip-rule="nonzero" d="M 24 41 L 40 41 L 40 48 L 24 48 Z M 24 41 "/>
</clipPath>
<clipPath id="clip-3">
<path clip-rule="nonzero" d="M 24 40 L 40 40 L 32 62 Z M 24 40 "/>
</clipPath>
<clipPath id="clip-4">
<path clip-rule="nonzero" d="M 24 46 L 40 46 L 40 52 L 24 52 Z M 24 46 "/>
</clipPath>
<clipPath id="clip-5">
<path clip-rule="nonzero" d="M 24 40 L 40 40 L 32 62 Z M 24 40 "/>
</clipPath>
<clipPath id="clip-6">
<path clip-rule="nonzero" d="M 24 50 L 40 50 L 40 57 L 24 57 Z M 24 50 "/>
</clipPath>
<clipPath id="clip-7">
<path clip-rule="nonzero" d="M 24 40 L 40 40 L 32 62 Z M 24 40 "/>
</clipPath>
<clipPath id="clip-8">
<path clip-rule="nonzero" d="M 24 55 L 40 55 L 40 61 L 24 61 Z M 24 55 "/>
</clipPath>
<clipPath id="clip-9">
<path clip-rule="nonzero" d="M 24 40 L 40 40 L 32 62 Z M 24 40 "/>
</clipPath>
<clipPath id="clip-10">
<path clip-rule="nonzero" d="M 34 12 L 44 12 L 44 42 L 34 42 Z M 34 12 "/>
</clipPath>
<clipPath id="clip-11">
<path clip-rule="nonzero" d="M 39 12 C 41.761719 12 44 14.238281 44 17 L 44 37 C 44 39.761719 41.761719 42 39 42 L 25 42 C 22.238281 42 20 39.761719 20 37 L 20 17 C 20 14.238281 22.238281 12 25 12 Z M 39 12 "/>
</clipPath>
<clipPath id="clip-12">
<path clip-rule="nonzero" d="M 20 22 L 44 22 L 44 28 L 20 28 Z M 20 22 "/>
</clipPath>
<clipPath id="clip-13">
<path clip-rule="nonzero" d="M 39 12 C 41.761719 12 44 14.238281 44 17 L 44 37 C 44 39.761719 41.761719 42 39 42 L 25 42 C 22.238281 42 20 39.761719 20 37 L 20 17 C 20 14.238281 22.238281 12 25 12 Z M 39 12 "/>
</clipPath>
</defs>
<path fill-rule="nonzero" fill="rgb(83.529412%, 87.843137%, 88.627451%)" fill-opacity="1" stroke-width="2.4" stroke-linecap="round" stroke-linejoin="round" stroke="rgb(9.411765%, 17.647059%, 20.784314%)" stroke-opacity="1" stroke-miterlimit="10" d="M 24 40 L 40 40 L 32 62 Z M 24 40 "/>
<g clip-path="url(#clip-0)">
<g clip-path="url(#clip-1)">
<path fill="none" stroke-width="1.8" stroke-linecap="round" stroke-linejoin="round" stroke="rgb(36.470588%, 45.490196%, 50.196078%)" stroke-opacity="1" stroke-miterlimit="10" d="M 22 42 L 42 38 "/>
</g>
</g>
<g clip-path="url(#clip-2)">
<g clip-path="url(#clip-3)">
<path fill="none" stroke-width="1.8" stroke-linecap="round" stroke-linejoin="round" stroke="rgb(36.470588%, 45.490196%, 50.196078%)" stroke-opacity="1" stroke-miterlimit="10" d="M 22 46.5 L 42 42.5 "/>
</g>
</g>
<g clip-path="url(#clip-4)">
<g clip-path="url(#clip-5)">
<path fill="none" stroke-width="1.8" stroke-linecap="round" stroke-linejoin="round" stroke="rgb(36.470588%, 45.490196%, 50.196078%)" stroke-opacity="1" stroke-miterlimit="10" d="M 22 51 L 42 47 "/>
</g>
</g>
<g clip-path="url(#clip-6)">
<g clip-path="url(#clip-7)">
<path fill="none" stroke-width="1.8" stroke-linecap="round" stroke-linejoin="round" stroke="rgb(36.470588%, 45.490196%, 50.196078%)" stroke-opacity="1" stroke-miterlimit="10" d="M 22 55.5 L 42 51.5 "/>
</g>
</g>
<g clip-path="url(#clip-8)">
<g clip-path="url(#clip-9)">
<path fill="none" stroke-width="1.8" stroke-linecap="round" stroke-linejoin="round" stroke="rgb(36.470588%, 45.490196%, 50.196078%)" stroke-opacity="1" stroke-miterlimit="10" d="M 22 60 L 42 56 "/>
</g>
</g>
<path fill="none" stroke-width="2.4" stroke-linecap="round" stroke-linejoin="round" stroke="rgb(9.411765%, 17.647059%, 20.784314%)" stroke-opacity="1" stroke-miterlimit="10" d="M 24 40 L 40 40 L 32 62 Z M 24 40 "/>
<path fill-rule="nonzero" fill="rgb(92.941176%, 75.686275%, 42.745098%)" fill-opacity="1" stroke-width="2.4" stroke-linecap="round" stroke-linejoin="round" stroke="rgb(9.411765%, 17.647059%, 20.784314%)" stroke-opacity="1" stroke-miterlimit="10" d="M 39 12 C 41.761719 12 44 14.238281 44 17 L 44 37 C 44 39.761719 41.761719 42 39 42 L 25 42 C 22.238281 42 20 39.761719 20 37 L 20 17 C 20 14.238281 22.238281 12 25 12 Z M 39 12 "/>
<g clip-path="url(#clip-10)">
<g clip-path="url(#clip-11)">
<path fill-rule="nonzero" fill="rgb(72.156863%, 61.176471%, 37.254902%)" fill-opacity="0.8" d="M 34 10 L 46 10 L 46 44 L 34 44 Z M 34 10 "/>
</g>
</g>
<g clip-path="url(#clip-12)">
<g clip-path="url(#clip-13)">
<path fill-rule="nonzero" fill="rgb(9.411765%, 17.647059%, 20.784314%)" fill-opacity="0.85" d="M 18 22 L 48 22 L 48 28 L 18 28 Z M 18 22 "/>
</g>
</g>
<path fill="none" stroke-width="2.4" stroke-linecap="round" stroke-linejoin="round" stroke="rgb(9.411765%, 17.647059%, 20.784314%)" stroke-opacity="1" stroke-miterlimit="10" d="M 39 12 C 41.761719 12 44 14.238281 44 17 L 44 37 C 44 39.761719 41.761719 42 39 42 L 25 42 C 22.238281 42 20 39.761719 20 37 L 20 17 C 20 14.238281 22.238281 12 25 12 Z M 39 12 "/>
<path fill-rule="nonzero" fill="rgb(56.078431%, 63.921569%, 67.058824%)" fill-opacity="1" stroke-width="2.4" stroke-linecap="round" stroke-linejoin="round" stroke="rgb(9.411765%, 17.647059%, 20.784314%)" stroke-opacity="1" stroke-miterlimit="10" d="M 54.5 6 C 56.433594 6 58 7.566406 58 9.5 C 58 11.433594 56.433594 13 54.5 13 L 9.5 13 C 7.566406 13 6 11.433594 6 9.5 C 6 7.566406 7.566406 6 9.5 6 Z M 54.5 6 "/>
<path fill-rule="nonzero" fill="rgb(100%, 99.215686%, 96.862745%)" fill-opacity="0.85" d="M 25 13 C 25.664062 13 26.199219 13.539062 26.199219 14.199219 L 26.199219 19.800781 C 26.199219 20.460938 25.664062 21 25 21 C 24.335938 21 23.800781 20.460938 23.800781 19.800781 L 23.800781 14.199219 C 23.800781 13.539062 24.335938 13 25 13 Z M 25 13 "/>
<path fill-rule="nonzero" fill="rgb(65.490196%, 46.27451%, 30.196078%)" fill-opacity="1" stroke-width="1.6" stroke-linecap="round" stroke-linejoin="round" stroke="rgb(9.411765%, 17.647059%, 20.784314%)" stroke-opacity="1" stroke-miterlimit="10" d="M 16 54 C 16 59.332031 8 59.332031 8 54 C 8 48.667969 16 48.667969 16 54 "/>
<path fill-rule="nonzero" fill="rgb(65.490196%, 46.27451%, 30.196078%)" fill-opacity="1" stroke-width="1.6" stroke-linecap="round" stroke-linejoin="round" stroke="rgb(9.411765%, 17.647059%, 20.784314%)" stroke-opacity="1" stroke-miterlimit="10" d="M 55.5 52 C 55.5 56.667969 48.5 56.667969 48.5 52 C 48.5 47.332031 55.5 47.332031 55.5 52 "/>
<path fill-rule="nonzero" fill="rgb(65.490196%, 46.27451%, 30.196078%)" fill-opacity="1" stroke-width="1.6" stroke-linecap="round" stroke-linejoin="round" stroke="rgb(9.411765%, 17.647059%, 20.784314%)" stroke-opacity="1" stroke-miterlimit="10" d="M 20.601562 46 C 20.601562 49.464844 15.398438 49.464844 15.398438 46 C 15.398438 42.535156 20.601562 42.535156 20.601562 46 "/>
</svg>
