<?xml version="1.0" encoding="UTF-8"?>
<svg xmlns="http://www.w3.org/2000/svg" xmlns:xlink="http://www.w3.org/1999/xlink" width="64" height="64" viewBox="0 0 64 64">
<defs>
<clipPath id="clip-0">
<path clip-rule="nonzero" d="M 18 23 L 30 23 L 30 61 L 18 61 Z M 18 23 "/>
</clipPath>
<clipPath id="clip-1">
<path clip-rule="nonzero" d="M 20.730469 23.753906 C 22.359375 23.457031 23.921875 24.539062 24.21875 26.167969 L 29.589844 55.683594 C 29.886719 57.3125 28.804688 58.875 27.175781 59.171875 L 21.269531 60.246094 C 19.640625 60.542969 18.078125 59.460938 17.78125 57.832031 L 12.410156 28.316406 C 12.113281 26.6875 13.195312 25.125 14.824219 24.828125 Z M 20.730469 23.753906 "/>
</clipPath>
<clipPath id="clip-2">
<path clip-rule="nonzero" d="M 14 26 L 22 26 L 22 57 L 14 57 Z M 14 26 "/>
</clipPath>
<clipPath id="clip-3">
<path clip-rule="nonzero" d="M 20.730469 23.753906 C 22.359375 23.457031 23.921875 24.539062 24.21875 26.167969 L 29.589844 55.683594 C 29.886719 57.3125 28.804688 58.875 27.175781 59.171875 L 21.269531 60.246094 C 19.640625 60.542969 18.078125 59.460938 17.78125 57.832031 L 12.410156 28.316406 C 12.113281 26.6875 13.195312 25.125 14.824219 24.828125 Z M 20.730469 23.753906 "/>
</clipPath>
<clipPath id="clip-4">
<path clip-rule="nonzero" d="M 40 23 L 52 23 L 52 61 L 40 61 Z M 40 23 "/>
</clipPath>
<clipPath id="clip-5">
<path clip-rule="nonzero" d="M 49.175781 24.828125 C 50.804688 25.125 51.886719 26.6875 51.589844 28.316406 L 46.21875 57.832031 C 45.921875 59.460938 44.359375 60.542969 42.730469 60.246094 L 36.824219 59.171875 C 35.195312 58.875 34.113281 57.3125 34.410156 55.683594 L 39.78125 26.167969 C 40.078125 24.539062 41.640625 23.457031 43.269531 23.753906 Z M 49.175781 24.828125 "/>
</clipPath>
<clipPath id="clip-6">
<path clip-rule="nonzero" d="M 36 25 L 45 25 L 45 56 L 36 56 Z M 36 25 "/>
</clipPath>
<clipPath id="clip-7">
<path clip-rule="nonzero" d="M 49.175781 24.828125 C 50.804688 25.125 51.886719 26.6875 51.589844 28.316406 L 46.21875 57.832031 C 45.921875 59.460938 44.359375 60.542969 42.730469 60.246094 L 36.824219 59.171875 C 35.195312 58.875 34.113281 57.3125 34.410156 55.683594 L 39.78125 26.167969 C 40.078125 24.539062 41.640625 23.457031 43.269531 23.753906 Z M 49.175781 24.828125 "/>
</clipPath>
<clipPath id="clip-8">
<path clip-rule="nonzero" d="M 33 20 L 38 20 L 38 56 L 33 56 Z M 33 20 "/>
</clipPath>
<clipPath id="clip-9">
<path clip-rule="nonzero" d="M 35 20 C 36.65625 20 38 21.34375 38 23 L 38 53 C 38 54.65625 36.65625 56 35 56 L 29 56 C 27.34375 56 26 54.65625 26 53 L 26 23 C 26 21.34375 27.34375 20 29 20 Z M 35 20 "/>
</clipPath>
<clipPath id="clip-10">
<path clip-rule="nonzero" d="M 28 22 L 31 22 L 31 52 L 28 52 Z M 28 22 "/>
</clipPath>
<clipPath id="clip-11">
<path clip-rule="nonzero" d="M 35 20 C 36.65625 20 38 21.34375 38 23 L 38 53 C 38 54.65625 36.65625 56 35 56 L 29 56 C 27.34375 56 26 54.65625 26 53 L 26 23 C 26 21.34375 27.34375 20 29 20 Z M 35 20 "/>
</clipPath>
</defs>
<path fill-rule="nonzero" fill="rgb(88.627451%, 32.156863%, 29.019608%)" fill-opacity="1" stroke-width="2.4" stroke-linecap="round" stroke-linejoin="round" stroke="rgb(9.411765%, 17.647059%, 20.784314%)" stroke-opacity="1" stroke-miterlimit="10" d="M 3.001414 -17.999558 C 4.657152 -18.000015 6.000692 -16.655731 6.001149 -14.999993 L 6.001296 15.000353 C 6.001752 16.656092 4.657469 17.999632 3.00173 18.000088 L -3.001414 17.999558 C -4.657152 18.000015 -6.000692 16.655731 -6.001149 14.999993 L -6.001296 -15.000353 C -6.001752 -16.656092 -4.657469 -17.999632 -3.00173 -18.000088 Z M 3.001414 -17.999558 " transform="matrix(0.983844, -0.17903, 0.17903, 0.983844, 21, 42)"/>
<g clip-path="url(#clip-0)">
<g clip-path="url(#clip-1)">
<path fill-rule="nonzero" fill="rgb(65.882353%, 22.745098%, 24.705882%)" fill-opacity="0.7" d="M 18.894531 22.054688 L 24.796875 20.980469 L 31.960938 60.335938 L 26.054688 61.410156 Z M 18.894531 22.054688 "/>
</g>
</g>
<g clip-path="url(#clip-2)">
<g clip-path="url(#clip-3)">
<path fill-rule="nonzero" fill="rgb(100%, 99.215686%, 96.862745%)" fill-opacity="0.35" d="M 14.199219 26.976562 L 16.5625 26.546875 L 21.933594 56.058594 L 19.570312 56.488281 Z M 14.199219 26.976562 "/>
</g>
</g>
<path fill-rule="nonzero" fill="rgb(94.901961%, 78.823529%, 62.745098%)" fill-opacity="1" d="M 23.679688 23.214844 C 23.878906 24.304688 21.394531 25.664062 18.136719 26.257812 C 14.875 26.851562 12.070312 26.453125 11.875 25.363281 C 11.675781 24.277344 14.160156 22.917969 17.417969 22.324219 C 20.679688 21.730469 23.484375 22.128906 23.679688 23.214844 "/>
<path fill-rule="nonzero" fill="rgb(88.627451%, 32.156863%, 29.019608%)" fill-opacity="1" stroke-width="2.4" stroke-linecap="round" stroke-linejoin="round" stroke="rgb(9.411765%, 17.647059%, 20.784314%)" stroke-opacity="1" stroke-miterlimit="10" d="M 3.00173 -18.000088 C 4.657469 -17.999632 6.001752 -16.656092 6.001296 -15.000353 L 6.001149 14.999993 C 6.000692 16.655731 4.657152 18.000015 3.001414 17.999558 L -3.00173 18.000088 C -4.657469 17.999632 -6.001752 16.656092 -6.001296 15.000353 L -6.001149 -14.999993 C -6.000692 -16.655731 -4.657152 -18.000015 -3.001414 -17.999558 Z M 3.00173 -18.000088 " transform="matrix(0.983844, 0.17903, -0.17903, 0.983844, 43, 42)"/>
<g clip-path="url(#clip-4)">
<g clip-path="url(#clip-5)">
<path fill-rule="nonzero" fill="rgb(65.882353%, 22.745098%, 24.705882%)" fill-opacity="0.7" d="M 48.054688 22.589844 L 53.960938 23.664062 L 46.796875 63.019531 L 40.894531 61.945312 Z M 48.054688 22.589844 "/>
</g>
</g>
<g clip-path="url(#clip-6)">
<g clip-path="url(#clip-7)">
<path fill-rule="nonzero" fill="rgb(100%, 99.215686%, 96.862745%)" fill-opacity="0.35" d="M 41.929688 25.542969 L 44.289062 25.972656 L 38.917969 55.488281 L 36.558594 55.058594 Z M 41.929688 25.542969 "/>
</g>
</g>
<path fill-rule="nonzero" fill="rgb(94.901961%, 78.823529%, 62.745098%)" fill-opacity="1" d="M 52.125 25.363281 C 51.929688 26.453125 49.125 26.851562 45.863281 26.257812 C 42.605469 25.664062 40.121094 24.304688 40.320312 23.214844 C 40.515625 22.128906 43.320312 21.730469 46.582031 22.324219 C 49.839844 22.917969 52.324219 24.277344 52.125 25.363281 "/>
<path fill-rule="nonzero" fill="rgb(88.627451%, 32.156863%, 29.019608%)" fill-opacity="1" stroke-width="2.4" stroke-linecap="round" stroke-linejoin="round" stroke="rgb(9.411765%, 17.647059%, 20.784314%)" stroke-opacity="1" stroke-miterlimit="10" d="M 3 -18 C 4.65625 -18 6 -16.65625 6 -15 L 6 15 C 6 16.65625 4.65625 18 3 18 L -3 18 C -4.65625 18 -6 16.65625 -6 15 L -6 -15 C -6 -16.65625 -4.65625 -18 -3 -18 Z M 3 -18 " transform="matrix(1, 0, 0, 1, 32, 38)"/>
<g clip-path="url(#clip-8)">
<g clip-path="url(#clip-9)">
<path fill-rule="nonzero" fill="rgb(65.882353%, 22.745098%, 24.705882%)" fill-opacity="0.7" d="M 33.5 18 L 39.5 18 L 39.5 58 L 33.5 58 Z M 33.5 18 "/>
</g>
</g>
<g clip-path="url(#clip-10)">
<g clip-path="url(#clip-11)">
<path fill-rule="nonzero" fill="rgb(100%, 99.215686%, 96.862745%)" fill-opacity="0.35" d="M 28 22 L 30.398438 22 L 30.398438 52 L 28 52 Z M 28 22 "/>
</g>
</g>
<path fill-rule="nonzero" fill="rgb(94.901961%, 78.823529%, 62.745098%)" fill-opacity="1" d="M 38 20 C 38 21.105469 35.3125 22 32 22 C 28.6875 22 26 21.105469 26 20 C 26 18.894531 28.6875 18 32 18 C 35.3125 18 38 18.894531 38 20 "/>
<path fill-rule="nonzero" fill="rgb(90.196078%, 83.921569%, 69.019608%)" fill-opacity="1" stroke-width="2.4" stroke-linecap="round" stroke-linejoin="round" stroke="rgb(9.411765%, 17.647059%, 20.784314%)" stroke-opacity="1" stroke-miterlimit="10" d="M 48 34 C 49.105469 34 50 34.894531 50 36 L 50 39 C 50 40.105469 49.105469 41 48 41 L 16 41 C 14.894531 41 14 40.105469 14 39 L 14 36 C 14 34.894531 14.894531 34 16 34 Z M 48 34 "/>
<path fill="none" stroke-width="4.2" stroke-linecap="round" stroke-linejoin="round" stroke="rgb(9.411765%, 17.647059%, 20.784314%)" stroke-opacity="1" stroke-miterlimit="10" d="M 32 18 C 32 10 40 12 42 6 "/>
<path fill="none" stroke-width="1.8" stroke-linecap="round" stroke-linejoin="round" stroke="rgb(78.823529%, 65.490196%, 47.843137%)" stroke-opacity="1" stroke-miterlimit="10" d="M 32 18 C 32 10 40 12 42 6 "/>
<path fill-rule="nonzero" fill="rgb(100%, 82.745098%, 36.078431%)" fill-opacity="1" stroke-width="1.92" stroke-linecap="round" stroke-linejoin="round" stroke="rgb(9.411765%, 17.647059%, 20.784314%)" stroke-opacity="1" stroke-miterlimit="10" d="M 49.878906 7.191406 L 45.886719 7.667969 L 45.90625 11.6875 L 43.5 8.46875 L 40.027344 10.496094 L 41.609375 6.800781 L 38.121094 4.808594 L 42.113281 4.332031 L 42.09375 0.3125 L 44.5 3.53125 L 47.972656 1.503906 L 46.390625 5.199219 Z M 49.878906 7.191406 "/>
<path fill-rule="nonzero" fill="rgb(100%, 99.215686%, 96.862745%)" fill-opacity="1" d="M 46.632812 7.4375 L 44.6875 7.128906 L 44.070312 9 L 43.367188 7.160156 L 41.4375 7.5625 L 42.679688 6.03125 L 41.367188 4.5625 L 43.3125 4.871094 L 43.929688 3 L 44.632812 4.839844 L 46.5625 4.4375 L 45.320312 5.96875 Z M 46.632812 7.4375 "/>
</svg>
